<svg version="1.1" id="Layer_1" xmlns="http://www.w3.org/2000/svg" xmlns:xlink="http://www.w3.org/1999/xlink" x="0px" y="0px" viewBox="0 0 206 72" style="enable-background:new 0 0 206 72;" xml:space="preserve">
 <g>
  <g>
   <g>
    <path d="M176.1,5.9V0.9h-7.5c-9.6,0-17.9,4.8-17.9,16.8v4.5h-7.5v4.9h13v-9c0-9.7,6.4-12.2,12.5-12.2L176.1,5.9z">
    </path>
    <path d="M133.5,50.5c0,10.5-6.2,16.6-16.7,16.6c-10.6,0-16.8-6.1-16.8-16.6V26.8l2-2v-2.7h-7.4v28.1c0,14.7,9,21.7,22.3,21.7
				c13.2,0,22.2-7,22.2-21.7V22.2h-5.4V50.5z">
    </path>
    <path d="M190,71.1h5.5v-35H206v-4.9H190V71.1z">
    </path>
    <path d="M145.9,29.2h-2.6v6.9h7.5v35h5.4V31.2h-8.4L145.9,29.2z">
    </path>
    <path d="M160.5,71.1h5.5v-35h14.2v35h5.5V31.2h-25.1V71.1z">
    </path>
    <path d="M116.7,63c7.9,0,12.4-4.7,12.4-12.4V26.8l2-2v-2.7h-7.4v28.6c0,4.8-2.3,7.3-7,7.3c-4.7,0-7-2.5-7-7.3V22.2h-5.5v28.4
				C104.2,58.2,108.8,63,116.7,63">
    </path>
    <path d="M198.1,0.9c-9.6,0-17.9,4.8-17.9,16.8v4.5H166v-3.5c0-2.8,0.8-3.8,3.9-3.8h6.3V9.9h-6.7c-6.1,0-8.9,2.7-8.9,8.6v8.5h25.1
				v-9c0-9.7,6.4-12.2,12.5-12.2h7.9V0.9H198.1z">
    </path>
    <path d="M190,18.6v8.5h11.5l2,2h2.6v-6.9h-10.6v-3.5c0-2.8,0.8-3.8,3.9-3.8h6.8V9.9h-7.1C192.8,9.9,190,12.7,190,18.6">
    </path>
    <path d="M20.9,42.1l9.5,2c5.9,1.2,8.2,3.3,8.2,7c0,5-3.9,7.4-11,7.4c-7.5,0-11.5-2.7-12.1-8.2H10c1.1,9.5,8.1,12.9,17.5,12.9
				c9.7,0,16.5-3.6,16.5-12.4c0-7.3-4.8-10.2-12.1-11.8l-10-2.1C11.5,34.8,7,29.6,7,20.9C7,11,13.5,4.7,26.8,4.7
				c10.4,0,17.6,4.4,20,12.5l-1.9,2.3c0.2,0.9,0.4,1.8,0.5,2.7h7.7C52.1,9,43,0,26.8,0C12.1,0,1.5,6.8,1.5,20.9
				C1.5,33.3,8.9,39.6,20.9,42.1">
    </path>
    <path d="M67.5,8.6H62v13.6h-7.5v4.9h13V8.6z">
    </path>
    <path d="M34.9,30l-10.2-2.1c-5.6-1.1-7.7-3.5-7.7-7.4c0-4.4,3.7-7,9.9-7s10.2,2.9,10.9,8.6h5.5c-0.8-9.4-8-13.4-16.4-13.4
				c-8.6,0-15.3,3.6-15.3,12c0,6.8,4.3,10.5,11.9,12.1l10,2.1c10,2.1,15.1,6.4,15.1,15.3c0,10.4-7.8,17-21.3,17
				c-10.2,0-18-4.1-20.8-12L8.3,53c-0.2-0.9-0.4-1.8-0.5-2.7H0C0.7,64.3,11.2,72,27.2,72C43.2,72,54,64.5,54,50.2
				C54,38.6,46.7,32.4,34.9,30z">
    </path>
    <path d="M77.3,8.6h-5.4v18.5h13.7l2,2h2.6v-6.9H77.3V8.6z">
    </path>
    <path d="M67.5,54.6V31.2h-8.4l-2-2h-2.6v6.9H62v19.2c0,12.3,7.3,15.7,16.5,15.7h11.6v-4.9H79.6C72.8,66.1,67.5,64,67.5,54.6z">
    </path>
    <path d="M71.8,54.1c0,6.4,2.8,8,8.5,8h9.9v-4.9h-9.5c-2.7,0-3.4-1.1-3.4-3.7V36.1h12.9v-4.9H71.8V54.1z">
    </path>
   </g>
  </g>
 </g>
</svg>